# xmcd
#
# Track frame offsets: 
#        150
#        81215
#        131342
#        188200
#
# Disc length: 3214 seconds
#
# Revision: 2
# Processed by: cddbd v1.5.2PL0 Copyright (c) Steve Scherf et al.
# Submitted via: ExactAudioCopy v1.0b1
#
DISCID=2b0c8c04
DTITLE=Masayuki Takayanagi - Ginparis Session June 26, 1963
DYEAR=1963
DGENRE=Jazz
TTITLE0=Green Sleeves
TTITLE1=Nardis
TTITLE2=If I Were A Bell
TTITLE3=Obstruction
EXTD=YEAR: 1963
EXTT0=
EXTT1=
EXTT2=
EXTT3=
PLAYORDER=
